<svg width="266" height="196" viewBox="0 0 266 196" fill="none" xmlns="http://www.w3.org/2000/svg">
<path d="M265.514 2.31718C265.457 1.47148 264.725 0.831956 263.88 0.888758C263.034 0.945559 262.394 1.67718 262.451 2.52288L265.514 2.31718ZM229.506 81.0459L228.719 79.7282L229.506 81.0459ZM146.747 70.4976L148.166 69.9144L146.747 70.4976ZM157.162 37.8587L157.831 39.24L157.162 37.8587ZM185.841 47.1023L184.695 48.124L185.841 47.1023ZM152.8 130.707L153.524 132.06L152.8 130.707ZM75.6064 116.586L74.2172 117.239L75.6064 116.586ZM82.6778 91.825L83.583 93.0644L82.6778 91.825ZM69.5732 187.508L69.1162 186.043L69.5732 187.508ZM1.9097 175.599L1.67576 174.082C1.12238 174.167 0.659384 174.547 0.467704 175.073C0.276024 175.599 0.386065 176.188 0.754829 176.61L1.9097 175.599ZM24.547 173.66C25.3848 173.531 25.9591 172.747 25.8299 171.91C25.7007 171.072 24.9169 170.497 24.0792 170.627L24.547 173.66ZM16.432 194.522C16.9903 195.16 17.9599 195.224 18.5977 194.666C19.2355 194.108 19.3 193.138 18.7418 192.5L16.432 194.522ZM263.982 2.42003C262.451 2.52288 262.451 2.52256 262.451 2.52246C262.451 2.5227 262.451 2.52281 262.451 2.52331C262.451 2.52429 262.451 2.52612 262.452 2.52878C262.452 2.53413 262.452 2.54281 262.453 2.55481C262.455 2.57882 262.457 2.61607 262.46 2.66623C262.465 2.76655 262.473 2.91848 262.482 3.11933C262.499 3.52104 262.521 4.11829 262.534 4.88947C262.562 6.43205 262.559 8.66912 262.438 11.428C262.195 16.9492 261.477 24.5419 259.582 32.8313C255.784 49.4463 247.315 68.6235 228.719 79.7282L230.293 82.3635C249.921 70.6426 258.69 50.5069 262.574 33.5153C264.521 25.0015 265.255 17.2176 265.504 11.5629C265.629 8.73389 265.632 6.43325 265.603 4.83509C265.589 4.0359 265.567 3.41203 265.548 2.98522C265.539 2.77179 265.531 2.60761 265.524 2.49538C265.521 2.43926 265.519 2.39612 265.517 2.36632C265.516 2.35141 265.515 2.33983 265.515 2.33164C265.514 2.32753 265.514 2.32427 265.514 2.32187C265.514 2.32066 265.514 2.31949 265.514 2.31889C265.514 2.31793 265.514 2.31718 263.982 2.42003ZM228.719 79.7282C214.272 88.3555 196.589 92.1605 181.253 90.6184C165.893 89.0738 153.225 82.2283 148.166 69.9144L145.327 71.0808C150.981 84.8438 164.967 92.0656 180.946 93.6724C196.949 95.2817 215.29 91.3224 230.293 82.3635L228.719 79.7282ZM148.166 69.9144C146.659 66.2461 145.912 60.0303 147.186 53.9507C148.454 47.9061 151.661 42.2274 157.831 39.24L156.493 36.4774C149.212 40.003 145.578 46.6641 144.182 53.321C142.794 59.9428 143.564 66.79 145.327 71.0808L148.166 69.9144ZM157.831 39.24C163.641 36.4262 168.9 37.0764 173.444 39.1945C178.049 41.3409 181.904 44.9955 184.695 48.124L186.986 46.0806C184.091 42.8362 179.905 38.8194 174.741 36.4124C169.516 33.9772 163.278 33.1919 156.493 36.4774L157.831 39.24ZM184.695 48.124C196.021 60.8183 195.739 76.7981 188.61 91.9113C181.466 107.056 167.523 121.078 152.075 129.354L153.524 132.06C169.491 123.506 183.932 109.022 191.386 93.2209C198.855 77.3877 199.386 59.9803 186.986 46.0806L184.695 48.124ZM152.075 129.354C138.812 136.459 123.091 139.779 109.157 137.954C95.258 136.134 83.2377 129.227 76.9955 115.934L74.2172 117.239C81.0015 131.686 94.0709 139.074 108.759 140.998C123.411 142.916 139.773 139.426 153.524 132.06L152.075 129.354ZM76.9955 115.934C75.0111 111.708 74.5559 107.569 75.5944 103.747C76.634 99.9208 79.2141 96.255 83.583 93.0644L81.7727 90.5856C76.9592 94.1009 73.8897 98.3145 72.6323 102.942C71.3738 107.574 71.974 112.462 74.2172 117.239L76.9955 115.934ZM83.583 93.0644C87.6818 90.071 91.8033 89.4967 95.8574 90.4969C99.986 91.5155 104.136 94.1949 108.087 97.8848L110.182 95.6416C106.034 91.7678 101.43 88.7103 96.5926 87.5168C91.6804 86.3049 86.6229 87.0434 81.7727 90.5856L83.583 93.0644ZM108.087 97.8848C121.572 110.48 120.277 129.7 111.094 147.529C101.925 165.331 85.1999 181.026 69.1162 186.043L70.0302 188.973C87.086 183.653 104.378 167.272 113.823 148.934C123.254 130.623 125.17 109.639 110.182 95.6416L108.087 97.8848ZM69.1162 186.043C56.5775 189.954 40.0477 187.104 26.4177 183.123C19.6477 181.145 13.6786 178.915 9.40168 177.179C7.2642 176.311 5.55189 175.567 4.3764 175.042C3.78873 174.78 3.33542 174.571 3.03042 174.43C2.87793 174.359 2.76254 174.305 2.68597 174.269C2.64771 174.25 2.61914 174.237 2.60051 174.228C2.59119 174.224 2.58436 174.22 2.58004 174.218C2.57787 174.217 2.57634 174.216 2.57544 174.216C2.57499 174.216 2.57478 174.216 2.57456 174.216C2.57451 174.216 2.57462 174.216 1.9097 175.599C1.24478 176.982 1.24521 176.982 1.24579 176.983C1.2462 176.983 1.24696 176.983 1.24778 176.983C1.2494 176.984 1.25167 176.985 1.25456 176.987C1.26036 176.989 1.26867 176.993 1.27947 176.999C1.30107 177.009 1.33266 177.024 1.37397 177.043C1.45664 177.083 1.5783 177.14 1.73724 177.214C2.05509 177.361 2.52207 177.575 3.12413 177.844C4.32814 178.383 6.07316 179.14 8.24704 180.023C12.5928 181.787 18.6626 184.055 25.5571 186.069C39.2562 190.071 56.5582 193.176 70.0302 188.973L69.1162 186.043ZM2.14364 177.116L24.547 173.66L24.0792 170.627L1.67576 174.082L2.14364 177.116ZM0.754829 176.61L16.432 194.522L18.7418 192.5L3.06457 174.588L0.754829 176.61Z" fill="#97E9F4"/>
</svg>
