<svg width="120" height="120" viewBox="0 0 120 120" fill="none" xmlns="http://www.w3.org/2000/svg">
<g id="Layer_1" clip-path="url(#clip0_105_4439)">
<path id="Vector" d="M40.1973 14.8228L34.4125 17.8496L29.4341 8.39991L35.2189 5.37305L35.8361 6.54606L30.7507 9.212L31.0716 8.39171L32.8984 11.8533L36.9469 9.73698L37.5476 10.8772L33.4909 12.9935L35.3506 16.5208L34.4783 16.2911L39.5637 13.6251L40.1891 14.8146L40.1973 14.8228Z" fill="#2B2B2B"/>
<path id="Vector_2" d="M42.3037 14.0517L40.7896 14.5685L42.0239 10.3686L38.4526 7.73548L39.9832 7.2105L42.5917 9.16278L43.4146 6.04569L44.9122 5.53711L43.719 9.80261L47.2245 12.3865L45.6939 12.9115L43.1266 10.992L42.3037 14.0681V14.0517Z" fill="#2B2B2B"/>
<path id="Vector_3" d="M48.5988 15.3399L46.7803 5.04525L48.0228 4.82378L48.352 6.08702C48.5001 5.55383 48.7799 5.11908 49.1995 4.79096C49.6192 4.46285 50.1047 4.24957 50.6725 4.15114C51.3555 4.0281 51.9726 4.08552 52.524 4.3152C53.0753 4.54488 53.5361 4.91401 53.8982 5.42259C54.2602 5.93117 54.5153 6.55458 54.6387 7.27644C54.7704 8.00649 54.7539 8.67913 54.5976 9.29435C54.4412 9.90956 54.145 10.4263 53.7171 10.8447C53.2892 11.263 52.7132 11.5337 52.0055 11.6568C51.4295 11.7552 50.9029 11.7306 50.4092 11.5747C49.9237 11.4189 49.5205 11.1482 49.2078 10.7545L49.973 15.102L48.5988 15.3399ZM48.7963 8.36742C48.8786 8.84319 49.0432 9.25333 49.29 9.60606C49.5369 9.95878 49.8496 10.2131 50.2199 10.3607C50.5902 10.5084 51.0099 10.5494 51.4789 10.4674C51.9479 10.3853 52.3265 10.2049 52.6145 9.93417C52.9025 9.66348 53.1082 9.31896 53.2234 8.90881C53.3386 8.49867 53.3468 8.05571 53.2645 7.57995C53.174 7.08777 53.0094 6.66122 52.7626 6.3167C52.5157 5.97218 52.2113 5.71789 51.841 5.56204C51.4707 5.40618 51.051 5.37337 50.5902 5.4554C50.1212 5.53743 49.7426 5.71789 49.4464 5.98859C49.1502 6.25928 48.9444 6.6038 48.8292 7.01395C48.714 7.42409 48.7058 7.87525 48.7881 8.36742H48.7963Z" fill="#2B2B2B"/>
<path id="Vector_4" d="M57.9953 10.8524L56.6047 10.9262L56.0122 0.073826L57.4029 0L57.9953 10.8524Z" fill="#2B2B2B"/>
<path id="Vector_5" d="M59.5096 7.07067C59.5507 6.33241 59.7565 5.69259 60.1185 5.14299C60.4806 4.5934 60.9496 4.17505 61.5339 3.87975C62.1181 3.59265 62.7764 3.46961 63.5088 3.51062C64.2411 3.55163 64.8747 3.75671 65.4178 4.10943C65.9609 4.47036 66.3806 4.93792 66.6686 5.52853C66.9566 6.11914 67.0801 6.78357 67.0389 7.52183C66.9978 8.26009 66.7921 8.89992 66.43 9.44951C66.0679 9.9991 65.5989 10.4174 65.0146 10.7128C64.4304 11.0081 63.7803 11.1229 63.048 11.0819C62.3156 11.0409 61.682 10.8358 61.1307 10.4749C60.5793 10.1139 60.1679 9.64638 59.8717 9.05577C59.5837 8.46516 59.4602 7.80073 59.5014 7.06247L59.5096 7.07067ZM60.9167 7.1527C60.8838 7.65308 60.9579 8.10424 61.1389 8.49797C61.3199 8.89171 61.575 9.21163 61.9206 9.44951C62.2662 9.68739 62.6612 9.81864 63.1303 9.84325C63.5911 9.86786 64.0107 9.78583 64.3728 9.59716C64.7431 9.40029 65.0393 9.12139 65.2615 8.74406C65.4837 8.37493 65.6153 7.94018 65.6483 7.4398C65.6812 6.93122 65.6071 6.48006 65.4261 6.08633C65.245 5.69259 64.9899 5.38088 64.6443 5.14299C64.2987 4.90511 63.9038 4.77386 63.4347 4.74105C62.9739 4.71644 62.5542 4.79847 62.1839 4.99534C61.8136 5.19221 61.5174 5.47111 61.2952 5.84024C61.0731 6.20937 60.9414 6.64412 60.9085 7.1527H60.9167Z" fill="#2B2B2B"/>
<path id="Vector_6" d="M73.532 5.09373L73.2852 6.34057L72.6762 6.21752C72.0262 6.08628 71.4831 6.17651 71.0305 6.47181C70.5861 6.76712 70.2899 7.25929 70.1582 7.94833L69.4094 11.6971L68.0435 11.4264L69.4506 4.35547L70.726 4.60976L70.5615 6.05347L70.4298 6.02886C70.6191 5.5859 70.9235 5.24958 71.3514 5.02811C71.7793 4.80663 72.2648 4.74921 72.8161 4.85584C72.9396 4.88045 73.063 4.91327 73.17 4.94608C73.2769 4.97889 73.4004 5.02811 73.5238 5.08553L73.532 5.09373Z" fill="#2B2B2B"/>
<path id="Vector_7" d="M75.7532 13.5429C75.0866 13.3214 74.5518 12.9769 74.1321 12.5011C73.7124 12.0254 73.4573 11.4758 73.3421 10.836C73.2352 10.2043 73.2928 9.5317 73.5314 8.81805C73.77 8.09619 74.1239 7.51379 74.5929 7.07083C75.0619 6.62787 75.5968 6.33257 76.1975 6.19312C76.7982 6.05367 77.4401 6.09469 78.0984 6.31616C78.7567 6.53764 79.2751 6.86576 79.6618 7.30871C80.0486 7.75167 80.2954 8.26845 80.3942 8.85906C80.4929 9.44967 80.4271 10.0895 80.1967 10.7703L80.0321 11.2625L74.1403 9.31842L74.4612 8.44892L78.9953 9.95825C79.1845 9.39225 79.1681 8.87547 78.9377 8.4161C78.7073 7.95674 78.3041 7.62863 77.7198 7.43176C77.2755 7.28411 76.8723 7.25129 76.4937 7.34153C76.1152 7.43176 75.7861 7.62863 75.4981 7.94034C75.2101 8.25205 74.9797 8.67039 74.8068 9.17897C74.5353 9.99926 74.5106 10.6965 74.7328 11.2625C74.955 11.8285 75.424 12.2304 76.1234 12.4683C76.6419 12.6406 77.0944 12.6734 77.4894 12.5832C77.8844 12.4847 78.2053 12.2633 78.4522 11.9105L79.6865 12.3207C79.2751 12.9933 78.7237 13.4363 78.0407 13.6577C77.3495 13.8792 76.5843 13.8382 75.7285 13.5593L75.7532 13.5429Z" fill="#2B2B2B"/>
<path id="Vector_8" d="M94.754 17.5297C94.145 18.432 93.4291 19.1047 92.6062 19.5476C91.7751 19.9906 90.9111 20.1957 90.006 20.1546C89.1008 20.1136 88.2285 19.8101 87.381 19.2441C86.5499 18.6945 85.9492 18.0055 85.5624 17.1852C85.1839 16.3649 85.0358 15.4954 85.1428 14.5685C85.2415 13.6415 85.5953 12.7228 86.2125 11.8123C86.8214 10.91 87.5291 10.2373 88.3602 9.79439C89.1913 9.35144 90.0553 9.14636 90.9523 9.17918C91.8574 9.21199 92.7297 9.50729 93.5608 10.0733C94.4083 10.6393 95.0173 11.3283 95.3958 12.1486C95.7743 12.9689 95.9142 13.8466 95.8155 14.7735C95.7167 15.7005 95.3711 16.6192 94.7622 17.5215L94.754 17.5297ZM93.4867 16.6848C93.9475 15.9958 94.2273 15.3149 94.3261 14.6341C94.4248 13.9533 94.3425 13.3216 94.0792 12.7392C93.8159 12.1568 93.388 11.6647 92.7791 11.2545C92.1784 10.8526 91.5612 10.6475 90.9193 10.6229C90.2775 10.6065 89.6603 10.7705 89.0679 11.1151C88.4672 11.4596 87.9405 11.9764 87.4797 12.6654C87.0189 13.3544 86.7391 14.0353 86.6404 14.7161C86.5417 15.397 86.6239 16.0368 86.8873 16.6192C87.1423 17.2098 87.5702 17.702 88.1709 18.1039C88.7799 18.5141 89.4053 18.7191 90.0553 18.7273C90.7054 18.7355 91.3226 18.5715 91.9233 18.2188C92.5157 17.8742 93.0424 17.3575 93.5032 16.6766L93.4867 16.6848Z" fill="#2B2B2B"/>
<path id="Vector_9" d="M101.229 21.2616L102.209 22.2296L97.1067 27.3564L96.2263 26.4786L96.8928 25.6009C96.4814 25.724 96.037 25.7076 95.5515 25.5681C95.066 25.4205 94.6381 25.1662 94.2596 24.7889C93.6671 24.1982 93.3873 23.5584 93.4367 22.8612C93.4861 22.1639 93.8152 21.4995 94.4488 20.8761L97.6251 17.6934L98.6126 18.6695L95.7654 21.5323C95.2223 22.0737 94.9426 22.5741 94.9343 23.0252C94.9261 23.4764 95.1072 23.8947 95.4857 24.2639C95.9383 24.715 96.432 24.9201 96.9504 24.8709C97.4688 24.8217 98.0037 24.5264 98.555 23.9768L101.246 21.278L101.229 21.2616Z" fill="#2B2B2B"/>
<path id="Vector_10" d="M106.471 27.537L105.459 28.3081L105.08 27.8159C104.677 27.2909 104.208 26.9956 103.673 26.93C103.138 26.8644 102.595 27.0366 102.044 27.4632L98.9994 29.7928L98.1519 28.6936L103.879 24.2969L104.677 25.3304L103.599 26.3066L103.517 26.1999C103.953 25.9867 104.406 25.9375 104.875 26.0523C105.344 26.1671 105.747 26.446 106.093 26.889C106.175 26.9874 106.241 27.0941 106.298 27.1925C106.356 27.2909 106.414 27.4058 106.471 27.5288V27.537Z" fill="#2B2B2B"/>
<path id="Vector_11" d="M110.216 32.4094C110.767 32.1469 111.318 32.0566 111.87 32.1387C112.421 32.2125 112.931 32.4504 113.4 32.8441C113.869 33.2379 114.264 33.7628 114.577 34.4191C114.865 35.0343 115.013 35.6249 115.013 36.1827C115.013 36.7405 114.873 37.2491 114.593 37.7002C114.314 38.1514 113.902 38.5287 113.359 38.8322L112.734 37.5116C113.203 37.2491 113.491 36.8963 113.606 36.4452C113.721 36.0022 113.647 35.5019 113.392 34.9605C113.104 34.3534 112.734 33.9351 112.281 33.7054C111.829 33.4757 111.359 33.4675 110.874 33.7054C110.479 33.8941 110.216 34.1484 110.084 34.4847C109.952 34.821 109.944 35.2394 110.051 35.7397L110.43 37.5034C110.627 38.3811 110.602 39.1193 110.356 39.7181C110.109 40.3169 109.648 40.7763 108.973 41.0962C108.389 41.3669 107.821 41.4654 107.262 41.3915C106.702 41.3177 106.184 41.0716 105.706 40.6697C105.229 40.2677 104.834 39.7263 104.505 39.0373C104.2 38.3893 104.036 37.7659 104.019 37.167C104.003 36.5682 104.135 36.035 104.406 35.5675C104.678 35.0917 105.081 34.7144 105.608 34.4191L106.241 35.7561C105.78 35.9858 105.501 36.3468 105.402 36.8389C105.303 37.3311 105.402 37.8807 105.682 38.4877C105.986 39.1275 106.373 39.5705 106.834 39.8166C107.294 40.0627 107.764 40.0709 108.241 39.8494C108.628 39.6689 108.891 39.4146 109.031 39.0865C109.171 38.7584 109.187 38.3401 109.072 37.8233L108.677 36.0679C108.488 35.1983 108.521 34.4601 108.776 33.8449C109.031 33.2297 109.508 32.7539 110.207 32.4258L110.216 32.4094Z" fill="#2B2B2B"/>
<path id="Vector_12" d="M107.36 46.5598C107.162 45.8872 107.146 45.2474 107.302 44.6403C107.458 44.0333 107.771 43.5001 108.232 43.049C108.693 42.5978 109.285 42.2697 110.009 42.0646C110.742 41.8514 111.425 41.8186 112.058 41.9498C112.692 42.081 113.235 42.3517 113.696 42.7701C114.157 43.1884 114.486 43.7298 114.675 44.4025C114.864 45.0669 114.889 45.6821 114.749 46.2481C114.601 46.8141 114.313 47.3063 113.877 47.7246C113.441 48.143 112.881 48.4465 112.19 48.6434L111.688 48.7828L109.96 42.8439L110.865 42.6142L112.19 47.1996C112.766 47.0356 113.186 46.7239 113.433 46.2727C113.679 45.8216 113.721 45.3048 113.556 44.7142C113.424 44.2712 113.219 43.9185 112.939 43.656C112.651 43.3935 112.297 43.2377 111.877 43.1802C111.458 43.1228 110.98 43.1638 110.462 43.3197C109.631 43.5576 109.038 43.9349 108.701 44.4435C108.355 44.9521 108.29 45.5591 108.495 46.2727C108.643 46.7895 108.874 47.1914 109.178 47.4621C109.483 47.7328 109.853 47.8723 110.281 47.8641L110.643 49.1109C109.853 49.1519 109.17 48.9551 108.602 48.5121C108.034 48.0692 107.623 47.4211 107.376 46.5598H107.36Z" fill="#2B2B2B"/>
<path id="Vector_13" d="M116.445 53.9669L115.186 54.1555L115.095 53.5403C114.996 52.8841 114.733 52.4001 114.297 52.0802C113.861 51.7603 113.301 51.6537 112.61 51.7603L108.817 52.3263L108.611 50.9564L115.762 49.8818L115.959 51.1697L114.544 51.506L114.527 51.3748C115.013 51.3994 115.432 51.5798 115.786 51.8997C116.14 52.2279 116.362 52.6626 116.445 53.2204C116.461 53.3435 116.478 53.4665 116.478 53.5813C116.478 53.6962 116.478 53.8192 116.469 53.9669H116.445Z" fill="#2B2B2B"/>
<path id="Vector_14" d="M109.393 58.3064L116.577 55.2549L116.61 56.7314L112.594 58.3884C112.257 58.5196 111.944 58.6427 111.648 58.7493C111.352 58.856 111.088 58.938 110.874 59.0036C111.121 59.0692 111.393 59.1513 111.697 59.2415C111.993 59.3399 112.306 59.4466 112.619 59.5696L116.692 61.0953L116.725 62.539L109.426 59.668L109.401 58.2982L109.393 58.3064Z" fill="#2B2B2B"/>
<path id="Vector_15" d="M109.293 63.5557L116.51 64.1627L116.395 65.549L109.178 64.9419L109.293 63.5557ZM118.164 64.9912C118.189 64.7451 118.296 64.54 118.493 64.376C118.691 64.2119 118.913 64.1381 119.16 64.1545C119.415 64.1791 119.621 64.2857 119.785 64.4826C119.95 64.6795 120.016 64.9009 119.999 65.147C119.974 65.4013 119.867 65.6064 119.678 65.7704C119.489 65.9345 119.258 66.0001 119.003 65.9837C118.757 65.9591 118.551 65.8525 118.386 65.6638C118.222 65.4751 118.148 65.2455 118.172 64.9912H118.164Z" fill="#2B2B2B"/>
<path id="Vector_16" d="M112.693 66.9434C113.442 67.0911 114.067 67.3618 114.569 67.7719C115.071 68.1739 115.433 68.6742 115.647 69.2566C115.861 69.839 115.902 70.4789 115.77 71.1597C115.598 72.0456 115.211 72.7429 114.618 73.235C114.026 73.7272 113.326 73.9569 112.52 73.9241L112.792 72.5624C113.269 72.5378 113.656 72.3737 113.96 72.0866C114.256 71.7913 114.454 71.4222 114.544 70.971C114.627 70.5445 114.602 70.1507 114.454 69.7816C114.314 69.4125 114.067 69.1008 113.73 68.8383C113.384 68.584 112.956 68.4035 112.446 68.2969C111.936 68.1985 111.475 68.1985 111.064 68.2969C110.652 68.3953 110.315 68.584 110.043 68.8629C109.772 69.1418 109.591 69.4945 109.508 69.9211C109.41 70.405 109.451 70.8398 109.623 71.2417C109.796 71.6355 110.084 71.9308 110.471 72.1276L110.2 73.4893C109.706 73.3006 109.294 73.0218 108.973 72.6362C108.652 72.2589 108.43 71.8077 108.299 71.2991C108.167 70.7906 108.167 70.2492 108.282 69.675C108.422 68.9777 108.694 68.4035 109.105 67.9442C109.517 67.4848 110.027 67.1731 110.644 66.9926C111.261 66.8122 111.936 66.7958 112.685 66.9434H112.693Z" fill="#2B2B2B"/>
<path id="Vector_17" d="M106.241 76.935C106.48 76.2788 106.842 75.7538 107.336 75.3518C107.821 74.9499 108.389 74.7038 109.023 74.6136C109.664 74.5233 110.331 74.6054 111.039 74.8597C111.755 75.1222 112.331 75.4913 112.767 75.967C113.203 76.4428 113.483 76.9842 113.606 77.5912C113.729 78.1982 113.672 78.8299 113.433 79.4861C113.195 80.1341 112.849 80.6427 112.396 81.02C111.944 81.3974 111.417 81.627 110.825 81.7091C110.224 81.7911 109.59 81.7091 108.916 81.463L108.43 81.2825L110.545 75.4667L111.409 75.8112L109.771 80.29C110.339 80.495 110.858 80.4868 111.327 80.2736C111.796 80.0521 112.133 79.6584 112.347 79.0841C112.503 78.6494 112.544 78.2392 112.47 77.8619C112.396 77.4846 112.199 77.1483 111.894 76.853C111.59 76.5577 111.178 76.3198 110.668 76.1311C109.854 75.8358 109.154 75.7948 108.578 75.9999C108.002 76.2049 107.591 76.6643 107.336 77.3533C107.146 77.8619 107.097 78.3131 107.188 78.715C107.27 79.117 107.492 79.4369 107.838 79.6912L107.393 80.9134C106.727 80.4868 106.299 79.9208 106.101 79.2318C105.904 78.5428 105.953 77.7717 106.266 76.935H106.241Z" fill="#2B2B2B"/>
<path id="Vector_18" d="M106.808 81.7006L106.175 82.8737C105.854 82.7014 105.533 82.685 105.22 82.8162C104.908 82.9475 104.644 83.2182 104.43 83.6201C104.2 84.0549 104.101 84.4322 104.142 84.7603C104.183 85.0884 104.348 85.3263 104.636 85.4822C104.842 85.597 105.056 85.6216 105.261 85.5724C105.467 85.5232 105.706 85.3509 105.969 85.072L106.833 84.0959C107.277 83.6037 107.714 83.3002 108.15 83.1854C108.586 83.0623 109.038 83.1279 109.507 83.3822C109.902 83.5955 110.182 83.8744 110.363 84.2353C110.536 84.5963 110.61 84.99 110.577 85.433C110.544 85.8759 110.396 86.3353 110.141 86.8028C109.886 87.2704 109.59 87.6313 109.236 87.8856C108.89 88.1399 108.512 88.2876 108.109 88.3204C107.705 88.3532 107.302 88.2712 106.882 88.0579L107.516 86.8849C107.853 87.0571 108.166 87.0817 108.462 86.9751C108.759 86.8685 109.005 86.6224 109.203 86.2532C109.409 85.8677 109.483 85.5314 109.433 85.2361C109.384 84.9408 109.211 84.7111 108.923 84.5634C108.495 84.3338 108.034 84.4896 107.541 85.031L106.668 86.0072C106.257 86.4829 105.846 86.7782 105.426 86.9013C105.006 87.0243 104.562 86.9587 104.093 86.7044C103.69 86.4911 103.402 86.1958 103.221 85.8185C103.04 85.4412 102.966 85.0228 103.007 84.5552C103.048 84.0877 103.204 83.6037 103.484 83.0951C103.887 82.3487 104.389 81.8565 104.99 81.6022C105.591 81.3561 106.199 81.3971 106.808 81.717V81.7006Z" fill="#2B2B2B"/>
<path id="Vector_19" d="M96.7534 95.5558C97.025 95.2769 97.3459 95.0883 97.7162 94.9898C98.0947 94.8832 98.465 94.875 98.8353 94.9488C99.2056 95.0226 99.5347 95.2031 99.8145 95.4738C100.094 95.7445 100.284 96.0726 100.382 96.4417C100.473 96.8109 100.481 97.1882 100.382 97.5737C100.292 97.9511 100.119 98.2792 99.8474 98.5581C99.5677 98.8452 99.2385 99.0421 98.8682 99.1323C98.4979 99.2225 98.1276 99.2307 97.7573 99.1323C97.387 99.0421 97.0661 98.8616 96.7781 98.5909C96.4983 98.3202 96.3091 98.0003 96.2103 97.6312C96.1198 97.2702 96.1116 96.9011 96.2021 96.532C96.2844 96.1628 96.4654 95.8347 96.7452 95.5558H96.7534Z" fill="#2B2B2B"/>
<path id="Vector_20" d="M80.7563 104.857L86.4836 101.724L91.643 111.083L85.9158 114.217L85.2739 113.052L90.3099 110.296L90.0055 111.124L88.1129 107.695L84.0972 109.894L83.4801 108.77L87.4875 106.572L85.5619 103.077L86.4424 103.29L81.4064 106.047L80.7563 104.865V104.857Z" fill="#2B2B2B"/>
<path id="Vector_21" d="M78.6585 105.67L80.1643 105.12L79.0123 109.345L82.6329 111.912L81.1189 112.462L78.4692 110.567L77.7122 113.7L76.2227 114.242L77.3336 109.96L73.7788 107.45L75.2929 106.9L77.9014 108.77L78.6667 105.678L78.6585 105.67Z" fill="#2B2B2B"/>
<path id="Vector_22" d="M72.3308 104.505L74.3468 114.767L73.1125 115.004L72.7587 113.749C72.6188 114.291 72.3472 114.725 71.9358 115.062C71.5243 115.398 71.0388 115.62 70.4711 115.726C69.7963 115.857 69.1791 115.816 68.6196 115.595C68.06 115.374 67.5992 115.013 67.2207 114.512C66.8422 114.012 66.5871 113.397 66.4472 112.667C66.3073 111.937 66.3073 111.272 66.4472 110.649C66.5953 110.025 66.8751 109.508 67.303 109.082C67.7309 108.655 68.2904 108.376 68.9981 108.237C69.5659 108.122 70.1008 108.139 70.5945 108.286C71.0882 108.434 71.4914 108.696 71.8041 109.09L70.9566 104.759L72.3225 104.488L72.3308 104.505ZM72.2649 111.485C72.1744 111.01 72.0016 110.599 71.7465 110.255C71.4914 109.91 71.1787 109.664 70.8002 109.517C70.4217 109.369 70.002 109.344 69.5412 109.435C69.0804 109.525 68.7019 109.714 68.4139 109.992C68.1259 110.271 67.9284 110.624 67.8296 111.034C67.7309 111.444 67.7144 111.887 67.8132 112.363C67.9119 112.855 68.0847 113.274 68.3398 113.618C68.5949 113.963 68.9076 114.209 69.2779 114.356C69.6482 114.504 70.0679 114.537 70.5287 114.447C70.9977 114.356 71.3762 114.168 71.6642 113.897C71.9605 113.618 72.158 113.274 72.2649 112.863C72.3719 112.453 72.3719 112.002 72.2814 111.51L72.2649 111.485Z" fill="#2B2B2B"/>
<path id="Vector_23" d="M63.0317 109.164L64.4224 109.065L65.2206 119.901L63.8299 120L63.0317 109.164Z" fill="#2B2B2B"/>
<path id="Vector_24" d="M61.567 112.979C61.534 113.717 61.3448 114.365 60.9992 114.923C60.6536 115.481 60.1845 115.907 59.6003 116.211C59.016 116.514 58.366 116.645 57.6336 116.621C56.9013 116.588 56.2676 116.399 55.7163 116.055C55.165 115.71 54.7453 115.243 54.4409 114.66C54.1364 114.078 54.0047 113.414 54.0376 112.675C54.0706 111.937 54.2598 111.289 54.6054 110.731C54.951 110.173 55.4201 109.747 55.9961 109.443C56.5721 109.14 57.2222 109.009 57.9545 109.033C58.6869 109.066 59.3287 109.255 59.8801 109.599C60.4314 109.944 60.8593 110.411 61.1638 111.002C61.4682 111.584 61.5999 112.249 61.567 112.987V112.979ZM60.1598 112.921C60.1845 112.421 60.094 111.97 59.913 111.584C59.7237 111.191 59.4604 110.879 59.1148 110.649C58.7692 110.419 58.366 110.296 57.8969 110.272C57.4279 110.247 57.0165 110.346 56.6544 110.543C56.2923 110.748 55.9961 111.035 55.7821 111.404C55.5682 111.781 55.4448 112.216 55.4201 112.716C55.3954 113.225 55.4777 113.676 55.6669 114.062C55.8562 114.447 56.1195 114.759 56.4651 114.988C56.8107 115.218 57.2139 115.341 57.683 115.366C58.152 115.39 58.5635 115.292 58.9255 115.095C59.2876 114.89 59.5838 114.611 59.7978 114.234C60.02 113.865 60.1352 113.422 60.1598 112.913V112.921Z" fill="#2B2B2B"/>
<path id="Vector_25" d="M47.6274 115.218L47.8496 113.971L48.4585 114.077C49.1086 114.192 49.6599 114.102 50.0961 113.79C50.5404 113.487 50.8202 112.986 50.9436 112.297L51.6184 108.532L52.9926 108.778L51.7254 115.874L50.4417 115.644L50.5816 114.2L50.7132 114.225C50.5322 114.676 50.2277 115.013 49.8081 115.242C49.3884 115.472 48.8947 115.537 48.3433 115.439C48.2199 115.414 48.0965 115.39 47.9895 115.357C47.8825 115.324 47.7591 115.275 47.6274 115.226V115.218Z" fill="#2B2B2B"/>
<path id="Vector_26" d="M45.2246 106.81C45.8911 107.015 46.4424 107.359 46.8621 107.827C47.2817 108.294 47.5615 108.844 47.6767 109.476C47.8002 110.107 47.7508 110.78 47.5286 111.494C47.2982 112.215 46.9608 112.806 46.5 113.265C46.0392 113.717 45.5126 114.028 44.9119 114.176C44.3112 114.332 43.6776 114.299 43.0028 114.094C42.3445 113.889 41.8179 113.569 41.4146 113.134C41.0114 112.699 40.7646 112.191 40.6576 111.6C40.5506 111.01 40.6 110.37 40.8139 109.689L40.9703 109.197L46.895 111.026L46.5905 111.904L42.0236 110.476C41.8425 111.051 41.8755 111.567 42.1141 112.019C42.3527 112.478 42.7642 112.798 43.3484 112.978C43.7928 113.118 44.2042 113.142 44.5745 113.044C44.953 112.954 45.2822 112.74 45.5619 112.421C45.8417 112.101 46.0639 111.682 46.2285 111.165C46.4918 110.337 46.5 109.64 46.2614 109.082C46.0227 108.516 45.5537 108.122 44.846 107.909C44.3276 107.745 43.875 107.72 43.4801 107.819C43.0851 107.925 42.7724 108.155 42.5338 108.516L41.2912 108.13C41.6944 107.45 42.2293 106.998 42.9123 106.761C43.5953 106.531 44.3688 106.547 45.2246 106.818V106.81Z" fill="#2B2B2B"/>
<path id="Vector_27" d="M26.1425 103.176C26.7267 102.265 27.4344 101.576 28.2572 101.117C29.0801 100.658 29.9441 100.436 30.8493 100.461C31.7545 100.485 32.6349 100.773 33.4907 101.322C34.3301 101.864 34.9472 102.536 35.3422 103.348C35.7372 104.16 35.9018 105.03 35.8112 105.957C35.729 106.884 35.3916 107.811 34.7991 108.729C34.2149 109.64 33.5072 110.321 32.6925 110.78C31.8779 111.239 31.0139 111.461 30.1087 111.444C29.2035 111.428 28.3313 111.149 27.4837 110.6C26.6279 110.05 26.0026 109.369 25.6158 108.557C25.2208 107.745 25.0645 106.875 25.1468 105.94C25.2291 105.005 25.5582 104.087 26.1507 103.176H26.1425ZM27.4261 103.996C26.9736 104.694 26.7102 105.383 26.6279 106.063C26.5457 106.744 26.6362 107.376 26.916 107.958C27.1875 108.541 27.6319 109.025 28.249 109.418C28.8579 109.804 29.4833 110.001 30.1169 110.009C30.7506 110.017 31.3759 109.837 31.9602 109.484C32.5527 109.123 33.0711 108.598 33.5154 107.901C33.968 107.204 34.2313 106.515 34.3136 105.834C34.3959 105.153 34.3054 104.513 34.0338 103.931C33.7623 103.348 33.3262 102.864 32.7172 102.471C32.1001 102.077 31.4747 101.88 30.8246 101.88C30.1745 101.88 29.5574 102.06 28.9731 102.421C28.3807 102.782 27.8705 103.307 27.4261 103.988V103.996Z" fill="#2B2B2B"/>
<path id="Vector_28" d="M19.6085 99.5748L18.6128 98.6233L23.6159 93.4062L24.5128 94.2594L23.8627 95.1535C24.2742 95.0222 24.7185 95.0304 25.204 95.1617C25.6895 95.2929 26.1257 95.5472 26.5124 95.9163C27.1213 96.4987 27.4093 97.1304 27.3764 97.8276C27.3435 98.5248 27.0226 99.1975 26.4054 99.8373L23.295 103.086L22.291 102.126L25.0888 99.2139C25.6237 98.6561 25.887 98.1557 25.8952 97.7046C25.8952 97.2534 25.706 96.8433 25.3192 96.4741C24.8584 96.0312 24.3647 95.8425 23.8463 95.8917C23.3279 95.9409 22.8012 96.2609 22.2581 96.8186L19.6167 99.5748H19.6085Z" fill="#2B2B2B"/>
<path id="Vector_29" d="M14.2349 93.3898L15.2305 92.5941L15.6173 93.0781C16.0287 93.5948 16.506 93.8819 17.0409 93.9394C17.5757 93.9968 18.1188 93.8081 18.6619 93.3734L21.6572 90.9863L22.5295 92.0691L16.8845 96.5643L16.0699 95.5471L17.1314 94.5546L17.2137 94.6612C16.7858 94.8827 16.3332 94.9319 15.8642 94.8335C15.3951 94.735 14.9837 94.4562 14.6298 94.0214C14.5476 93.923 14.4817 93.8245 14.4241 93.7261C14.3665 93.6277 14.3007 93.521 14.2431 93.3898H14.2349Z" fill="#2B2B2B"/>
<path id="Vector_30" d="M10.4006 88.5995C9.84927 88.8702 9.30617 88.9768 8.74662 88.903C8.19529 88.8374 7.67688 88.6077 7.19961 88.2222C6.72234 87.8366 6.31913 87.3198 5.99821 86.6636C5.69375 86.0566 5.5374 85.466 5.52917 84.9082C5.52094 84.3504 5.6526 83.8336 5.91592 83.3824C6.17924 82.9313 6.59068 82.5375 7.12555 82.234L7.77562 83.5465C7.31481 83.8172 7.03504 84.1781 6.92806 84.6293C6.82109 85.0804 6.90337 85.5726 7.1667 86.1058C7.46293 86.7046 7.84145 87.1148 8.30226 87.3444C8.76307 87.5659 9.23211 87.5577 9.70938 87.328C10.0961 87.1394 10.3595 86.8687 10.4829 86.5324C10.6063 86.196 10.6145 85.7777 10.4911 85.2773L10.0797 83.5219C9.86573 82.6524 9.87396 81.9141 10.1126 81.3071C10.343 80.7001 10.7956 80.2325 11.4703 79.9044C12.0463 79.6173 12.6141 79.5107 13.1737 79.5763C13.7332 79.6419 14.2599 79.8716 14.7454 80.2653C15.2309 80.6591 15.6341 81.1923 15.9797 81.8731C16.3006 82.5211 16.4734 83.1364 16.4981 83.7352C16.5228 84.334 16.4076 84.8672 16.1443 85.3429C15.881 85.8187 15.486 86.2124 14.9676 86.5077L14.3093 85.1871C14.7618 84.9492 15.0416 84.5883 15.1239 84.0879C15.2062 83.5875 15.1074 83.0461 14.8112 82.4473C14.4985 81.8157 14.1035 81.3809 13.6345 81.1431C13.1655 80.9052 12.6964 80.9052 12.2274 81.1431C11.8489 81.3317 11.5938 81.586 11.4539 81.9223C11.3222 82.2505 11.314 82.677 11.4374 83.1856L11.8653 84.941C12.071 85.8023 12.0546 86.5488 11.8077 87.1722C11.5609 87.7956 11.0918 88.2796 10.4006 88.6159V88.5995Z" fill="#2B2B2B"/>
<path id="Vector_31" d="M12.9929 74.392C13.1987 75.0565 13.2316 75.6963 13.0835 76.3115C12.9353 76.9267 12.6391 77.4599 12.1865 77.9193C11.7339 78.3786 11.1497 78.7149 10.4338 78.9364C9.70967 79.1579 9.02669 79.2153 8.39307 79.0923C7.75946 78.9692 7.20813 78.7149 6.73909 78.3048C6.27005 77.8946 5.93267 77.3615 5.72696 76.6888C5.52124 76.0326 5.48832 75.4174 5.61998 74.8432C5.75164 74.269 6.03142 73.7768 6.45931 73.3502C6.88721 72.9237 7.44677 72.6038 8.12975 72.3987L8.62348 72.2429L10.4667 78.1489L9.56979 78.395L8.16267 73.8342C7.58665 74.0065 7.17522 74.3264 6.93658 74.7858C6.69795 75.2369 6.66503 75.7619 6.84607 76.3443C6.98595 76.7873 7.1999 77.1318 7.48791 77.3943C7.77592 77.6568 8.13798 77.8044 8.55765 77.8536C8.97731 77.9029 9.45458 77.8536 9.97299 77.6896C10.8041 77.4353 11.3883 77.0498 11.7175 76.533C12.0466 76.0162 12.1042 75.4092 11.8903 74.7037C11.7339 74.1869 11.4953 73.7932 11.1826 73.5307C10.8699 73.2682 10.4996 73.137 10.0717 73.1452L9.68499 71.9065C10.4749 71.8491 11.1579 72.0378 11.7339 72.4643C12.31 72.8909 12.7296 73.5389 13.0012 74.392H12.9929Z" fill="#2B2B2B"/>
<path id="Vector_32" d="M3.76042 67.1566L5.01942 66.9434L5.1264 67.5586C5.23337 68.2066 5.51315 68.6906 5.94927 69.0023C6.3854 69.314 6.95318 69.4124 7.6444 69.2894L11.4296 68.6496L11.66 70.0194L4.53392 71.2253L4.31175 69.9456L5.71887 69.5847L5.74355 69.7159C5.25806 69.6995 4.83839 69.5273 4.47632 69.2074C4.11426 68.8874 3.89208 68.4527 3.79334 67.9031C3.76865 67.7801 3.76042 67.657 3.75219 67.5422C3.74396 67.4273 3.75219 67.3043 3.75219 67.1566H3.76042Z" fill="#2B2B2B"/>
<path id="Vector_33" d="M10.7378 62.7028L3.61174 65.8855L3.55414 64.409L7.53686 62.67C7.86601 62.5306 8.1787 62.4075 8.47493 62.2927C8.77117 62.186 9.02626 62.0958 9.24021 62.022C8.99335 61.9646 8.71357 61.8907 8.41733 61.7923C8.1211 61.7021 7.8084 61.5954 7.48748 61.4806L3.38133 60.0287L3.32373 58.585L10.6802 61.3165L10.7296 62.6864L10.7378 62.7028Z" fill="#2B2B2B"/>
<path id="Vector_34" d="M1.8344 56.1811C1.81794 56.4272 1.71097 56.6323 1.52171 56.8045C1.32422 56.9768 1.11027 57.0506 0.863406 57.0342C0.608315 57.0178 0.394367 56.9112 0.229792 56.7225C0.0652166 56.5256 -0.00884222 56.3124 0.0076153 56.0663C0.0240728 55.812 0.131047 55.5987 0.320308 55.4347C0.50957 55.2706 0.731746 55.1968 0.986838 55.2132C1.2337 55.2296 1.43942 55.328 1.61222 55.5167C1.78503 55.7053 1.85909 55.9268 1.84263 56.1811H1.8344ZM10.7297 57.4444L3.50484 56.9686L3.59535 55.5823L10.8202 56.0581L10.7297 57.4444Z" fill="#2B2B2B"/>
<path id="Vector_35" d="M7.27394 54.1231C6.52512 53.9918 5.89151 53.7293 5.38132 53.3356C4.87114 52.9418 4.50085 52.4497 4.27044 51.8755C4.04003 51.2931 3.99066 50.6614 4.11409 49.9724C4.27044 49.0783 4.64073 48.381 5.22498 47.8725C5.80922 47.3639 6.50043 47.126 7.30685 47.1424L7.06822 48.5123C6.59095 48.5451 6.2042 48.7173 5.90796 49.0127C5.61173 49.308 5.4307 49.6853 5.34841 50.1447C5.27435 50.5712 5.30726 50.9649 5.46361 51.3341C5.61173 51.7032 5.85859 52.0067 6.21243 52.261C6.55804 52.5153 6.98593 52.6793 7.50434 52.7696C8.02275 52.8598 8.48357 52.8516 8.88677 52.745C9.28998 52.6383 9.62736 52.4415 9.89068 52.1544C10.154 51.8673 10.3268 51.5145 10.4009 51.088C10.4832 50.604 10.442 50.1693 10.261 49.7755C10.0799 49.3818 9.79194 49.0947 9.39696 48.906L9.63559 47.5361C10.1375 47.7166 10.549 47.9873 10.8781 48.3646C11.2073 48.7338 11.4377 49.1767 11.5776 49.6853C11.7092 50.1939 11.7257 50.7353 11.627 51.3095C11.5035 52.0067 11.2402 52.5891 10.837 53.0485C10.4338 53.516 9.9236 53.836 9.31467 54.0328C8.70574 54.2215 8.02275 54.2543 7.27394 54.1231Z" fill="#2B2B2B"/>
<path id="Vector_36" d="M13.5276 44.0168C13.2972 44.6812 12.9434 45.2144 12.4661 45.6245C11.9888 46.0347 11.4293 46.289 10.7957 46.3956C10.162 46.5023 9.48729 46.4284 8.77962 46.1905C8.06371 45.9445 7.47947 45.5835 7.03512 45.116C6.59077 44.6484 6.30276 44.107 6.16287 43.5082C6.02298 42.9012 6.07235 42.2696 6.29453 41.6133C6.51671 40.9653 6.85409 40.4403 7.29844 40.063C7.74279 39.6775 8.26121 39.4396 8.8619 39.3493C9.45438 39.2591 10.0962 39.3247 10.7792 39.5626L11.2729 39.7267L9.27334 45.5835L8.40109 45.2554L9.95633 40.7438C9.38855 40.547 8.87013 40.5634 8.40932 40.793C7.94851 41.0227 7.61113 41.4247 7.41364 41.9989C7.26553 42.4336 7.23261 42.8438 7.3149 43.2211C7.39719 43.5984 7.59468 43.9347 7.90737 44.2219C8.22006 44.509 8.6315 44.7386 9.14991 44.9191C9.97279 45.198 10.6722 45.2308 11.24 45.0093C11.8078 44.7878 12.2192 44.3285 12.4579 43.6312C12.6307 43.1227 12.6718 42.6633 12.5813 42.2696C12.4908 41.8758 12.2604 41.5559 11.9065 41.3098L12.3262 40.0794C13.001 40.4977 13.4371 41.0473 13.651 41.7364C13.865 42.4254 13.8238 43.1883 13.5358 44.0332L13.5276 44.0168Z" fill="#2B2B2B"/>
<path id="Vector_37" d="M12.869 39.2673L13.4779 38.0861C13.8071 38.2502 14.1197 38.2666 14.4324 38.1271C14.7451 37.9877 15.0002 37.717 15.2059 37.3151C15.4281 36.8803 15.5186 36.4948 15.4693 36.1749C15.4199 35.8467 15.2471 35.6171 14.9591 35.4694C14.7451 35.3628 14.5394 35.3382 14.3337 35.3874C14.128 35.4366 13.8976 35.6171 13.6343 35.9042L12.7867 36.8967C12.3506 37.3971 11.9227 37.7088 11.4865 37.8318C11.0586 37.9631 10.5978 37.9057 10.1288 37.6596C9.73382 37.4545 9.44581 37.1838 9.25655 36.8229C9.07552 36.4702 8.99323 36.0682 9.02614 35.6253C9.05083 35.1823 9.19072 34.7229 9.42935 34.2472C9.66799 33.7714 9.96422 33.4105 10.3098 33.148C10.6554 32.8855 11.0257 32.7378 11.4289 32.6886C11.8322 32.6476 12.2354 32.7214 12.655 32.9265L12.0461 34.1077C11.7087 33.9437 11.396 33.9273 11.0998 34.0421C10.8036 34.1569 10.5649 34.403 10.3674 34.7804C10.1699 35.1659 10.1041 35.5022 10.1617 35.8057C10.2193 36.101 10.3921 36.3225 10.6884 36.4702C11.1162 36.6916 11.5771 36.5276 12.0543 35.978L12.9101 34.9854C13.3133 34.5015 13.7248 34.198 14.1362 34.0667C14.5476 33.9355 15.0002 33.9929 15.4693 34.2308C15.8725 34.4358 16.1687 34.7311 16.358 35.1003C16.5472 35.4776 16.6295 35.896 16.5966 36.3553C16.5637 36.8229 16.4156 37.3069 16.1523 37.8236C15.7655 38.5783 15.2718 39.0869 14.6711 39.3412C14.0704 39.5955 13.4697 39.5709 12.8525 39.2591L12.869 39.2673Z" fill="#2B2B2B"/>
<path id="Vector_38" d="M22.6694 25.199C22.4061 25.4779 22.0852 25.6748 21.7149 25.7814C21.3446 25.888 20.9661 25.9126 20.5958 25.8388C20.2255 25.765 19.8963 25.6009 19.6001 25.3302C19.3039 25.0595 19.1146 24.7396 19.0159 24.3705C18.9171 24.0014 18.9089 23.624 18.9912 23.2467C19.0735 22.8612 19.2463 22.5331 19.5096 22.2542C19.7894 21.9588 20.1103 21.762 20.4806 21.6635C20.8509 21.5651 21.2212 21.5569 21.5915 21.6389C21.9617 21.721 22.2909 21.8932 22.5789 22.1639C22.8669 22.4346 23.0644 22.7463 23.1631 23.1073C23.2619 23.4682 23.2701 23.8373 23.1961 24.2064C23.122 24.5756 22.941 24.9119 22.6776 25.199H22.6694Z" fill="#2B2B2B"/>
</g>
<defs>
<clipPath id="clip0_105_4439">
<rect width="120" height="120" fill="white" transform="translate(-0.000488281)"/>
</clipPath>
</defs>
</svg>
