<svg width="48" height="48" viewBox="0 0 48 48" fill="none" xmlns="http://www.w3.org/2000/svg">
<g id="Frame" clip-path="url(#clip0_105_4478)">
<g id="Clip path group">
<mask id="mask0_105_4478" style="mask-type:luminance" maskUnits="userSpaceOnUse" x="-1" y="0" width="49" height="48">
<g id="clip0_104_40">
<path id="Vector" d="M47.9995 0H-0.000488281V48H47.9995V0Z" fill="white"/>
</g>
</mask>
<g mask="url(#mask0_105_4478)">
<g id="Group">
<path id="Vector_2" d="M24.0605 48C23.3035 48 22.6636 47.4518 22.4803 46.7174C21.896 44.3767 20.7774 41.8874 19.1245 39.2501C17.1662 36.0833 14.3745 33.1459 10.7495 30.4375C7.59669 28.0546 4.44386 26.4295 1.29104 25.5626C0.544324 25.3574 -0.000488281 24.6953 -0.000488281 23.9208C-0.000488281 23.1616 0.523367 22.5071 1.25345 22.2986C4.34459 21.416 7.32244 19.9831 10.187 18C13.4787 15.7083 16.2287 12.9583 18.437 9.75C20.3906 6.89196 21.7317 4.06531 22.4602 1.2701C22.6511 0.537828 23.2957 0 24.0526 0C24.8177 0 25.4669 0.549739 25.6531 1.29199C26.0736 2.9677 26.7307 4.68288 27.6245 6.4375C28.7496 8.60417 30.187 10.6875 31.937 12.6875C33.7286 14.6458 35.7288 16.4167 37.937 18C40.8228 20.0455 43.7563 21.4827 46.7381 22.3114C47.4696 22.5146 47.9995 23.1659 47.9995 23.925C47.9995 24.6955 47.4535 25.3522 46.7105 25.5559C44.8205 26.0741 42.875 26.9098 40.8746 28.0625C38.4578 29.4792 36.2078 31.1666 34.1244 33.125C32.0412 35.0417 30.3329 37.0625 28.9994 39.1874C27.3434 41.8303 26.2236 44.3388 25.6404 46.7134C25.4594 47.4499 24.8186 48 24.0605 48Z" fill="#141627"/>
</g>
</g>
</g>
</g>
<defs>
<clipPath id="clip0_105_4478">
<rect width="48" height="48" fill="white" transform="translate(-0.000488281)"/>
</clipPath>
</defs>
</svg>
